<?xml version="1.0" encoding="UTF-8" standalone="no"?>
<!-- Created with Inkscape (http://www.inkscape.org/) -->

<svg
   width="431.69601mm"
   height="431.69601mm"
   viewBox="0 0 431.69601 431.69601"
   version="1.1"
   id="svg1"
   xml:space="preserve"
   inkscape:version="1.3.2 (091e20e, 2023-11-25, custom)"
   sodipodi:docname="favicon.svg"
   inkscape:export-filename="favicon.png"
   inkscape:export-xdpi="15.06"
   inkscape:export-ydpi="15.06"
   xmlns:inkscape="http://www.inkscape.org/namespaces/inkscape"
   xmlns:sodipodi="http://sodipodi.sourceforge.net/DTD/sodipodi-0.dtd"
   xmlns="http://www.w3.org/2000/svg"
   xmlns:svg="http://www.w3.org/2000/svg"><sodipodi:namedview
     id="namedview1"
     pagecolor="#ffffff"
     bordercolor="#000000"
     borderopacity="0.25"
     inkscape:showpageshadow="2"
     inkscape:pageopacity="0.0"
     inkscape:pagecheckerboard="0"
     inkscape:deskcolor="#d1d1d1"
     inkscape:document-units="mm"
     inkscape:zoom="0.42607189"
     inkscape:cx="819.1106"
     inkscape:cy="785.07878"
     inkscape:window-width="1920"
     inkscape:window-height="991"
     inkscape:window-x="-9"
     inkscape:window-y="-9"
     inkscape:window-maximized="1"
     inkscape:current-layer="layer1"
     showgrid="false" /><defs
     id="defs1" /><g
     inkscape:label="Layer 1"
     inkscape:groupmode="layer"
     id="layer1"
     transform="translate(153.97964,33.581293)"><g
       id="g1"><circle
         style="fill:#d400f8;fill-opacity:1;stroke:#ffffff;stroke-width:20;stroke-linecap:round;stroke-linejoin:round;stroke-dasharray:none;stroke-opacity:1;paint-order:fill markers stroke"
         id="path1"
         cx="56.461079"
         cy="178.53256"
         r="200.44072" /><path
         style="fill:#000000;fill-opacity:1;stroke:#ffffff;stroke-width:20;stroke-linecap:round;stroke-linejoin:round;stroke-dasharray:none;stroke-opacity:1"
         d="m -141.63781,96.725596 14.91576,1.104858 C -111.2539,80.336688 -105.17712,28.591982 -14.025406,38.719955 -17.340017,260.43036 -114.5685,283.81676 -108.49172,329.30053 c 2.20973,25.7803 22.649814,41.61675 44.747211,42.53746 C 6.0463874,369.44413 2.9159249,275.34611 24.645017,38.167505 H 114.69186 C 109.90408,121.76928 96.829803,205.37104 95.356644,287.3155 c 1.104876,54.50687 34.250946,83.60178 77.893266,83.97007 71.81652,2.39387 94.46634,-81.39204 94.46634,-117.11612 h -15.46818 c -1.47316,29.46318 -15.65232,50.63983 -45.85209,51.92883 -82.31275,1.10487 -37.01311,-144.73785 -36.46067,-266.825903 l 97.78094,0.552448 -0.55246,-62.425126 C -139.25147,-24.56898 -87.665771,-32.53658 -141.63781,96.725596 Z"
         id="path1-4" /></g></g></svg>
